<svg width="201" height="438" viewBox="0 0 201 438" fill="none" xmlns="http://www.w3.org/2000/svg">
<path d="M0 56.77C0 25.4168 25.4168 0 56.77 0H200.199L53.777 92.0015C41.2544 99.8698 33.6541 113.621 33.6541 128.411V380.51C33.6541 393.501 39.5267 405.795 49.6314 413.959L79.3892 438H56.77C25.4168 438 0 412.583 0 381.23V56.77Z" fill="#EE1F82"/>
<path d="M56.6395 75C38.1573 75 23 61.5685 23 45C23 31.4856 32.9912 20.0584 46.7044 16.3047V20.4669C35.7152 24.1056 27.7409 33.5807 27.7409 44.6963V45.9327C27.8803 60.1096 40.8628 71.1496 56.6741 71.25C57.3536 71.2618 58.0278 71.2435 58.696 71.199V27.3125L59.3932 26.6875L76.4743 35.625V54.6875L67.2714 59.25V55.1875L71.4545 52.625L71.7334 38.4375L63.9249 34.0625V70.3494V74.2827C61.5778 74.7523 59.1394 75 56.6395 75Z" fill="white"/>
<path d="M56.4996 15C75.0364 15 90.0766 28.5077 89.9997 45.125C90.0613 58.3228 80.4178 69.5428 67.132 73.4879V69.404C77.8328 65.4358 85.479 56.8112 85.6265 45.9327L85.6273 44.9227C85.6164 30.6688 72.5841 18.875 56.684 18.875C56.2132 18.875 55.745 18.8851 55.2798 18.9051V63.4375L54.4431 63.875L37.5712 54.8125V35.375L46.7044 31.0625V35.875L42.8698 38.1875V52.25L50.4692 56.5V19.4776V15.4856C52.4257 15.1666 54.4412 15 56.4996 15Z" fill="white"/>
</svg>
